<?xml version="1.0" encoding="utf-8"?>
<!-- Generator: Adobe Illustrator 26.3.1, SVG Export Plug-In . SVG Version: 6.00 Build 0)  -->
<svg version="1.1" id="レイヤー_1" xmlns="http://www.w3.org/2000/svg" xmlns:xlink="http://www.w3.org/1999/xlink" x="0px"
	 y="0px" width="100px" height="100px" viewBox="0 0 100 100" style="enable-background:new 0 0 100 100;" xml:space="preserve">
<path d="M91.76,61.27c2.35,3.9,1.81,6.33-1.91,8.81c-0.13,0.09-4.77,2.31-7.28,2.31c-0.7,1.33-3.83,4.83-9.55,7.65
	c-2.26,1.11-4.53,2.19-6.81,3.29c1.16,3.21-0.46,7.01-3.64,8.3c-3.2,0.74-5.77-0.23-7.68-4.81c-2.97,0.4-5.97,0.96-9,1.16
	c-4.27,0.29-5.88-2.03-4.41-6.06c0.12-0.33,0.24-0.66,0.39-1.1c-1.6,0.09-3.05,0.29-4.48,0.23c-3.66-0.15-6.68-3.82-5.77-7.35
	c0.3-1.19,1.66-2.25,2.77-3.05c0.94-0.68,2.22-0.91,3.85-1.54c-1.78-2.08-3.33-3.88-4.67-5.46c-4.3,1.4-8,1.61-11.37-1.22
	c-0.34-0.28-0.75-0.59-1.16-0.65c-2.62-0.39-4.53-1.61-5.65-4.14c-0.27-0.62-1.34-0.9-2.05-1.33c-2.03-1.21-4.15-2.29-6.07-3.65
	c-2.1-1.49-2.65-3.7-1.98-6.15c0.35-1.3,0.26-2.27-0.85-3.24c-0.62-0.54-1.02-1.58-1.1-2.44c-1.09-11.77,6.9-18.8,15.87-18.53
	c2.28,0.07,4.62,0.27,6.81,0.84c2,0.52,3.87,1.59,3.95,4.17c0.01,0.38,0.33,0.81,0.62,1.12c4.62,4.86,5.08,9.12,1.57,14.61
	c-0.12,0.18-0.17,0.4-0.07,0.16c1.71,1.79,3.48,3.25,4.74,5.07c1.46,2.1,1.45,4.46-0.21,6.64c-1.1,1.45-1.89,3-0.87,4.8
	c1.15,0,2.27,0,2.72,0c1.25-3.53,2.09-6.92,3.61-9.99c2.58-5.23,10.45-5.86,14.11-1.34c1.33,1.64,1.67,1.57,2.57-0.31
	c1.81-3.8,4.6-7.17,10.32-7.77c-0.05-0.21,0.21-1.59,0.44-2.3c0.95-2.87,2.06-4.71,4.63-6.37c1.68-1.08,3.45-1.78,5.41-0.84
	c2.12,1.02,2.15,2.98,2.01,4.95c-0.06,0.83-0.19,1.66-0.3,2.54c1.6-1.14,3.05-2.56,4.79-3.3c1.41-0.6,3.35-0.9,4.73-0.43
	c1.84,0.63,1.58,3.11,1.31,4.72c-0.35,2.06-1.19,3.84-1.97,5.65c1.27,0.98,2.21,2.36,3.25,3.9C95.77,52.39,94.44,57.42,91.76,61.27z
	 M32.69,60.88c-0.88-2.91-0.55-5.19,0.96-7.38c1.42-2.07,0.88-4.28-1.23-5.69c-0.76-0.51-1.62-0.85-2.47-1.21
	c-2.08-0.88-2.51-1.94-1.41-3.91c0.6-1.07,1.39-2.02,2.03-3.07c1.58-2.6,0.43-7.58-2.27-8.66c-2.17-0.87-3.35-1.78-1.69-4.33
	c-1.64-0.42-2.94-0.87-4.27-1.08c-9.45-1.46-16.21,4.46-15.86,13.91c0.03,0.68,0.3,1.75,0.77,1.95c2.4,1.07,1.95,2.86,1.34,4.65
	c-0.75,2.23-0.21,3.93,1.83,5.07c1.67,0.93,3.42,1.7,5.09,2.64c0.91,0.51,2.09,1.05,2.47,1.89c0.86,1.89,2.1,2.86,4.13,3.13
	c0.77,0.1,1.44,0.78,2.19,1.15c0.99,0.5,1.99,1.28,3.02,1.35C29.05,61.4,30.81,61.05,32.69,60.88z M78.08,33.15
	c-3.63,0.23-5.95,3.98-5.72,7.11c0.11,1.43-0.28,2.2-1.61,2.55c-0.65,0.17-1.3,0.45-1.96,0.51c-5.05,0.47-9.68,7.2-5.97,12.49
	c2.24,3.2,5.04,5.03,8.49,6.2c5.94,2.01,11.69,1.4,16.88-2.09c3.81-2.56,4.36-9.41,0.89-11.88c-2.42-1.73-2.49-3.24-1.21-5.51
	c0.59-1.05,1.09-1.49,1.43-2.66c0.16-0.55,0.59-2.55-0.11-2.82c-1.98-0.6-5.19,2.77-6.4,5.3c-0.94,1.97-2.22,1.72-3.77,0.97
	c-1.54-0.74-2-1.42-1.26-3.42C78.45,38.05,79.65,33.15,78.08,33.15z M43.74,84.44c0.45,0.85,2.41,0.71,2.87,0.68
	c8.06-0.56,15.41-3.27,22.63-6.72c4.05-1.93,8.03-4.12,11-7.75c0.66-0.8,2.49-0.71,3.56-1.19c1.93-0.87,4.33-1.22,5.69-2.69
	c0.38-0.41,1.12-1.5,0.22-2.61c-0.35-0.74-1.37-0.2-1.99-0.04c-1.92,0.48-3.78,1.33-5.73,1.61c-8.4,1.19-16.01-0.05-21.39-7.53
	c-0.08-0.12-0.36-0.1-0.23-0.07c0,2.46,0.26,4.94-0.08,7.33c-0.31,2.2-0.7,4.84-2.07,6.37c-3.9,4.35-11.21,5.1-16.25,1.76
	c-2.2-1.46-3.87-1.01-5.91-0.24c-1.64,0.62-1.82,1.74-0.9,2.81c0.71,0.82,1.99,1.65,2.99,1.62c2.11-0.07,4.18-0.86,6.29-1.01
	c0.95-0.07,2.43,0.44,2.82,1.15c0.34,0.63-0.46,1.86-1.11,2.42C45.06,81.26,43.18,83.4,43.74,84.44z M56.9,63.39
	c-4.26-0.38-9.44-1.17-13.46-1.07c-0.6,0.26-1.87,1.29-2.71,1.72c-0.25,0.13-3.08-1.63-3.33-1.5c-0.27,0.14,1.87,3.29,1.87,3.29
	s2.11,2.81,3.62,4.58c1.81,2.11,7.61,2.6,10.44,1.19C56.08,70.23,57.45,67.06,56.9,63.39z M53.62,55.34
	c1.97-3.95-0.47-7.28-4.84-6.52c-2.96,0.52-5.44,3.56-5.77,7.83c1.97-0.33,3.78-0.53,5.02-2.54c0.94-1.53,2.4-1.76,3.73-0.06
	C52.17,54.58,52.92,54.87,53.62,55.34z M57.79,86.55c0.37,1.29,1.11,2.17,2.62,2.17c3.38,0,3.62-3.08,3.16-3.88
	C61.65,85.33,60.09,85.42,57.79,86.55z M55.72,59.93c-3.28-3.73-7.29-2.81-10.64-0.61C47.7,59.46,53.29,59.8,55.72,59.93z"/>
<path d="M69.7,57.37c-0.8-0.37-1.79-1.44-1.55-2.13c0.24-0.69,1.41-0.71,2.15-0.3c1.69,0.94,6.42,0.97,9.58,0.68
	c0.58-0.05,1.15,0.25,1.17,1.01c0.01,0.51-0.92,1.18-1.64,1.4C78.19,58.41,71.69,58.3,69.7,57.37z"/>
<path d="M79.55,52.88c-0.8,0-1.3-1.06-1.3-1.5c0-0.91,0.81-1.5,1.58-1.51c0.58-0.01,1.21,0.98,1.21,1.5
	C81.04,52.08,80.26,52.88,79.55,52.88z"/>
<path d="M72.43,47.65c1,0,1.32,0.88,1.32,1.55c0,0.62-0.58,1.55-1.32,1.55c-0.99-0.05-1.46-0.74-1.47-1.37
	C70.95,48.68,71.52,47.65,72.43,47.65z"/>
</svg>
